<mxfile host="Electron" agent="Mozilla/5.0 (Windows NT 10.0; Win64; x64) AppleWebKit/537.36 (KHTML, like Gecko) draw.io/24.7.17 Chrome/128.0.6613.36 Electron/32.0.1 Safari/537.36" version="24.7.17">
  <diagram name="general workflow" id="VDKU6RNClAWFVmToEune">
    <mxGraphModel dx="1671" dy="967" grid="1" gridSize="10" guides="1" tooltips="1" connect="1" arrows="1" fold="1" page="1" pageScale="1" pageWidth="850" pageHeight="1100" math="0" shadow="0">
      <root>
        <mxCell id="0" />
        <mxCell id="1" parent="0" />
        <mxCell id="3NDLiqy1EePTKtnGJrRT-3" style="edgeStyle=orthogonalEdgeStyle;rounded=0;orthogonalLoop=1;jettySize=auto;html=1;" edge="1" parent="1" source="3NDLiqy1EePTKtnGJrRT-1" target="3NDLiqy1EePTKtnGJrRT-2">
          <mxGeometry relative="1" as="geometry" />
        </mxCell>
        <mxCell id="3NDLiqy1EePTKtnGJrRT-1" value="User" style="shape=umlActor;verticalLabelPosition=bottom;verticalAlign=top;html=1;outlineConnect=0;" vertex="1" parent="1">
          <mxGeometry x="110" y="147" width="30" height="60" as="geometry" />
        </mxCell>
        <mxCell id="3NDLiqy1EePTKtnGJrRT-5" style="edgeStyle=orthogonalEdgeStyle;rounded=0;orthogonalLoop=1;jettySize=auto;html=1;" edge="1" parent="1" source="3NDLiqy1EePTKtnGJrRT-2" target="3NDLiqy1EePTKtnGJrRT-4">
          <mxGeometry relative="1" as="geometry" />
        </mxCell>
        <mxCell id="3NDLiqy1EePTKtnGJrRT-2" value="Home" style="rounded=1;whiteSpace=wrap;html=1;fillColor=#dae8fc;strokeColor=#6c8ebf;" vertex="1" parent="1">
          <mxGeometry x="270" y="173" width="120" height="60" as="geometry" />
        </mxCell>
        <mxCell id="3NDLiqy1EePTKtnGJrRT-9" style="edgeStyle=orthogonalEdgeStyle;rounded=0;orthogonalLoop=1;jettySize=auto;html=1;" edge="1" parent="1" source="3NDLiqy1EePTKtnGJrRT-4" target="3NDLiqy1EePTKtnGJrRT-8">
          <mxGeometry relative="1" as="geometry">
            <mxPoint x="660" y="256.9999999999999" as="targetPoint" />
          </mxGeometry>
        </mxCell>
        <mxCell id="3NDLiqy1EePTKtnGJrRT-4" value="Sign Up" style="rounded=1;whiteSpace=wrap;html=1;fillColor=#dae8fc;strokeColor=#6c8ebf;" vertex="1" parent="1">
          <mxGeometry x="470" y="200" width="120" height="60" as="geometry" />
        </mxCell>
        <mxCell id="3NDLiqy1EePTKtnGJrRT-6" value="Fill form with account details" style="shape=callout;whiteSpace=wrap;html=1;perimeter=calloutPerimeter;fillColor=#f8cecc;strokeColor=#b85450;" vertex="1" parent="1">
          <mxGeometry x="480" y="110" width="120" height="80" as="geometry" />
        </mxCell>
        <mxCell id="3NDLiqy1EePTKtnGJrRT-11" style="edgeStyle=orthogonalEdgeStyle;rounded=0;orthogonalLoop=1;jettySize=auto;html=1;" edge="1" parent="1" source="3NDLiqy1EePTKtnGJrRT-8" target="3NDLiqy1EePTKtnGJrRT-10">
          <mxGeometry relative="1" as="geometry" />
        </mxCell>
        <mxCell id="3NDLiqy1EePTKtnGJrRT-8" value="Sign In" style="rounded=1;whiteSpace=wrap;html=1;fillColor=#dae8fc;strokeColor=#6c8ebf;" vertex="1" parent="1">
          <mxGeometry x="660" y="233" width="120" height="60" as="geometry" />
        </mxCell>
        <mxCell id="3NDLiqy1EePTKtnGJrRT-13" style="edgeStyle=orthogonalEdgeStyle;rounded=0;orthogonalLoop=1;jettySize=auto;html=1;" edge="1" parent="1" source="3NDLiqy1EePTKtnGJrRT-10" target="3NDLiqy1EePTKtnGJrRT-12">
          <mxGeometry relative="1" as="geometry">
            <mxPoint x="610" y="420" as="sourcePoint" />
            <Array as="points">
              <mxPoint x="720" y="430" />
              <mxPoint x="610" y="430" />
            </Array>
          </mxGeometry>
        </mxCell>
        <mxCell id="3NDLiqy1EePTKtnGJrRT-10" value="Complete Profile" style="rounded=1;whiteSpace=wrap;html=1;fillColor=#dae8fc;strokeColor=#6c8ebf;" vertex="1" parent="1">
          <mxGeometry x="660" y="344" width="120" height="60" as="geometry" />
        </mxCell>
        <mxCell id="3NDLiqy1EePTKtnGJrRT-27" style="edgeStyle=orthogonalEdgeStyle;rounded=0;orthogonalLoop=1;jettySize=auto;html=1;" edge="1" parent="1" source="3NDLiqy1EePTKtnGJrRT-12" target="3NDLiqy1EePTKtnGJrRT-28">
          <mxGeometry relative="1" as="geometry">
            <mxPoint x="470" y="482.9999999999998" as="targetPoint" />
          </mxGeometry>
        </mxCell>
        <mxCell id="3NDLiqy1EePTKtnGJrRT-12" value="Model Form" style="rounded=1;whiteSpace=wrap;html=1;fillColor=#dae8fc;strokeColor=#6c8ebf;" vertex="1" parent="1">
          <mxGeometry x="550" y="466" width="120" height="60" as="geometry" />
        </mxCell>
        <mxCell id="3NDLiqy1EePTKtnGJrRT-14" value="Fill form with profile details" style="shape=callout;whiteSpace=wrap;html=1;perimeter=calloutPerimeter;rotation=91;horizontal=0;fillColor=#f8cecc;strokeColor=#b85450;" vertex="1" parent="1">
          <mxGeometry x="680" y="426" width="120" height="140" as="geometry" />
        </mxCell>
        <mxCell id="3NDLiqy1EePTKtnGJrRT-63" style="edgeStyle=orthogonalEdgeStyle;rounded=0;orthogonalLoop=1;jettySize=auto;html=1;" edge="1" parent="1" source="3NDLiqy1EePTKtnGJrRT-16" target="3NDLiqy1EePTKtnGJrRT-62">
          <mxGeometry relative="1" as="geometry" />
        </mxCell>
        <mxCell id="3NDLiqy1EePTKtnGJrRT-16" value="Open Competition" style="rounded=1;whiteSpace=wrap;html=1;fillColor=#dae8fc;strokeColor=#6c8ebf;" vertex="1" parent="1">
          <mxGeometry x="285" y="466.52" width="120" height="60" as="geometry" />
        </mxCell>
        <mxCell id="3NDLiqy1EePTKtnGJrRT-22" style="edgeStyle=orthogonalEdgeStyle;rounded=0;orthogonalLoop=1;jettySize=auto;html=1;" edge="1" parent="1" source="3NDLiqy1EePTKtnGJrRT-18" target="3NDLiqy1EePTKtnGJrRT-21">
          <mxGeometry relative="1" as="geometry" />
        </mxCell>
        <mxCell id="3NDLiqy1EePTKtnGJrRT-32" style="edgeStyle=orthogonalEdgeStyle;rounded=0;orthogonalLoop=1;jettySize=auto;html=1;" edge="1" parent="1" source="3NDLiqy1EePTKtnGJrRT-18" target="3NDLiqy1EePTKtnGJrRT-30">
          <mxGeometry relative="1" as="geometry" />
        </mxCell>
        <mxCell id="3NDLiqy1EePTKtnGJrRT-18" value="Join Competition" style="rounded=1;whiteSpace=wrap;html=1;" vertex="1" parent="1">
          <mxGeometry x="585" y="687.52" width="120" height="60" as="geometry" />
        </mxCell>
        <mxCell id="3NDLiqy1EePTKtnGJrRT-20" value="Join Competition and fill form with organization details" style="shape=callout;whiteSpace=wrap;html=1;perimeter=calloutPerimeter;fillColor=#f8cecc;strokeColor=#b85450;" vertex="1" parent="1">
          <mxGeometry x="565" y="580" width="150" height="100" as="geometry" />
        </mxCell>
        <mxCell id="3NDLiqy1EePTKtnGJrRT-56" style="edgeStyle=orthogonalEdgeStyle;rounded=0;orthogonalLoop=1;jettySize=auto;html=1;" edge="1" parent="1" source="3NDLiqy1EePTKtnGJrRT-21" target="3NDLiqy1EePTKtnGJrRT-54">
          <mxGeometry relative="1" as="geometry">
            <Array as="points">
              <mxPoint x="340" y="677" />
              <mxPoint x="340" y="720" />
            </Array>
          </mxGeometry>
        </mxCell>
        <mxCell id="3NDLiqy1EePTKtnGJrRT-21" value="Game" style="rounded=1;whiteSpace=wrap;html=1;fillColor=#dae8fc;strokeColor=#6c8ebf;" vertex="1" parent="1">
          <mxGeometry x="385" y="647.04" width="120" height="60" as="geometry" />
        </mxCell>
        <mxCell id="3NDLiqy1EePTKtnGJrRT-23" value="Help User to understand what he may do to decrease emissions" style="shape=callout;whiteSpace=wrap;html=1;perimeter=calloutPerimeter;fillColor=#f8cecc;strokeColor=#b85450;" vertex="1" parent="1">
          <mxGeometry x="370" y="540" width="150" height="100" as="geometry" />
        </mxCell>
        <mxCell id="3NDLiqy1EePTKtnGJrRT-26" style="edgeStyle=orthogonalEdgeStyle;rounded=0;orthogonalLoop=1;jettySize=auto;html=1;" edge="1" parent="1" source="3NDLiqy1EePTKtnGJrRT-28" target="3NDLiqy1EePTKtnGJrRT-16">
          <mxGeometry relative="1" as="geometry">
            <mxPoint x="440" y="482.9999999999998" as="sourcePoint" />
            <Array as="points">
              <mxPoint x="420" y="483" />
              <mxPoint x="420" y="497" />
            </Array>
          </mxGeometry>
        </mxCell>
        <mxCell id="3NDLiqy1EePTKtnGJrRT-28" value="Organization" style="sketch=0;outlineConnect=0;fontColor=#232F3E;gradientColor=none;strokeColor=#232F3E;fillColor=none;dashed=0;verticalLabelPosition=bottom;verticalAlign=top;align=center;html=1;fontSize=12;fontStyle=0;aspect=fixed;shape=mxgraph.aws4.resourceIcon;resIcon=mxgraph.aws4.office_building;" vertex="1" parent="1">
          <mxGeometry x="430" y="453" width="60" height="60" as="geometry" />
        </mxCell>
        <mxCell id="3NDLiqy1EePTKtnGJrRT-50" style="edgeStyle=orthogonalEdgeStyle;rounded=0;orthogonalLoop=1;jettySize=auto;html=1;" edge="1" parent="1" source="3NDLiqy1EePTKtnGJrRT-30" target="3NDLiqy1EePTKtnGJrRT-42">
          <mxGeometry relative="1" as="geometry">
            <Array as="points">
              <mxPoint x="443" y="830" />
              <mxPoint x="520" y="830" />
            </Array>
          </mxGeometry>
        </mxCell>
        <mxCell id="3NDLiqy1EePTKtnGJrRT-51" style="edgeStyle=orthogonalEdgeStyle;rounded=0;orthogonalLoop=1;jettySize=auto;html=1;" edge="1" parent="1" source="3NDLiqy1EePTKtnGJrRT-30" target="3NDLiqy1EePTKtnGJrRT-46">
          <mxGeometry relative="1" as="geometry">
            <Array as="points">
              <mxPoint x="443" y="830" />
              <mxPoint x="680" y="830" />
            </Array>
          </mxGeometry>
        </mxCell>
        <mxCell id="3NDLiqy1EePTKtnGJrRT-52" style="edgeStyle=orthogonalEdgeStyle;rounded=0;orthogonalLoop=1;jettySize=auto;html=1;entryX=0.5;entryY=0;entryDx=0;entryDy=0;" edge="1" parent="1" source="3NDLiqy1EePTKtnGJrRT-30" target="3NDLiqy1EePTKtnGJrRT-38">
          <mxGeometry relative="1" as="geometry">
            <Array as="points">
              <mxPoint x="443" y="830" />
              <mxPoint x="360" y="830" />
            </Array>
          </mxGeometry>
        </mxCell>
        <mxCell id="3NDLiqy1EePTKtnGJrRT-53" style="edgeStyle=orthogonalEdgeStyle;rounded=0;orthogonalLoop=1;jettySize=auto;html=1;" edge="1" parent="1" source="3NDLiqy1EePTKtnGJrRT-30" target="3NDLiqy1EePTKtnGJrRT-34">
          <mxGeometry relative="1" as="geometry">
            <Array as="points">
              <mxPoint x="443" y="830" />
              <mxPoint x="190" y="830" />
            </Array>
          </mxGeometry>
        </mxCell>
        <mxCell id="3NDLiqy1EePTKtnGJrRT-55" style="edgeStyle=orthogonalEdgeStyle;rounded=0;orthogonalLoop=1;jettySize=auto;html=1;" edge="1" parent="1" source="3NDLiqy1EePTKtnGJrRT-30" target="3NDLiqy1EePTKtnGJrRT-54">
          <mxGeometry relative="1" as="geometry">
            <Array as="points">
              <mxPoint x="340" y="770" />
              <mxPoint x="340" y="720" />
            </Array>
          </mxGeometry>
        </mxCell>
        <mxCell id="3NDLiqy1EePTKtnGJrRT-30" value="Enter Emissions Data" style="rounded=1;whiteSpace=wrap;html=1;fillColor=#dae8fc;strokeColor=#6c8ebf;" vertex="1" parent="1">
          <mxGeometry x="380" y="740" width="125" height="60" as="geometry" />
        </mxCell>
        <mxCell id="3NDLiqy1EePTKtnGJrRT-34" value="Energy" style="swimlane;fontStyle=0;childLayout=stackLayout;horizontal=1;startSize=30;horizontalStack=0;resizeParent=1;resizeParentMax=0;resizeLast=0;collapsible=1;marginBottom=0;whiteSpace=wrap;html=1;fillColor=#d5e8d4;strokeColor=#82b366;" vertex="1" parent="1">
          <mxGeometry x="120" y="850" width="140" height="120" as="geometry" />
        </mxCell>
        <mxCell id="3NDLiqy1EePTKtnGJrRT-35" value="Electricity" style="text;strokeColor=none;fillColor=none;align=left;verticalAlign=middle;spacingLeft=4;spacingRight=4;overflow=hidden;points=[[0,0.5],[1,0.5]];portConstraint=eastwest;rotatable=0;whiteSpace=wrap;html=1;" vertex="1" parent="3NDLiqy1EePTKtnGJrRT-34">
          <mxGeometry y="30" width="140" height="30" as="geometry" />
        </mxCell>
        <mxCell id="3NDLiqy1EePTKtnGJrRT-36" value="Heating" style="text;strokeColor=none;fillColor=none;align=left;verticalAlign=middle;spacingLeft=4;spacingRight=4;overflow=hidden;points=[[0,0.5],[1,0.5]];portConstraint=eastwest;rotatable=0;whiteSpace=wrap;html=1;" vertex="1" parent="3NDLiqy1EePTKtnGJrRT-34">
          <mxGeometry y="60" width="140" height="30" as="geometry" />
        </mxCell>
        <mxCell id="3NDLiqy1EePTKtnGJrRT-37" value="Cooling" style="text;strokeColor=none;fillColor=none;align=left;verticalAlign=middle;spacingLeft=4;spacingRight=4;overflow=hidden;points=[[0,0.5],[1,0.5]];portConstraint=eastwest;rotatable=0;whiteSpace=wrap;html=1;" vertex="1" parent="3NDLiqy1EePTKtnGJrRT-34">
          <mxGeometry y="90" width="140" height="30" as="geometry" />
        </mxCell>
        <mxCell id="3NDLiqy1EePTKtnGJrRT-38" value="Transportation" style="swimlane;fontStyle=0;childLayout=stackLayout;horizontal=1;startSize=30;horizontalStack=0;resizeParent=1;resizeParentMax=0;resizeLast=0;collapsible=1;marginBottom=0;whiteSpace=wrap;html=1;fillColor=#d5e8d4;strokeColor=#82b366;" vertex="1" parent="1">
          <mxGeometry x="290" y="850" width="140" height="90" as="geometry" />
        </mxCell>
        <mxCell id="3NDLiqy1EePTKtnGJrRT-39" value="Vechicle" style="text;strokeColor=none;fillColor=none;align=left;verticalAlign=middle;spacingLeft=4;spacingRight=4;overflow=hidden;points=[[0,0.5],[1,0.5]];portConstraint=eastwest;rotatable=0;whiteSpace=wrap;html=1;" vertex="1" parent="3NDLiqy1EePTKtnGJrRT-38">
          <mxGeometry y="30" width="140" height="30" as="geometry" />
        </mxCell>
        <mxCell id="3NDLiqy1EePTKtnGJrRT-40" value="Commuting Ways" style="text;strokeColor=none;fillColor=none;align=left;verticalAlign=middle;spacingLeft=4;spacingRight=4;overflow=hidden;points=[[0,0.5],[1,0.5]];portConstraint=eastwest;rotatable=0;whiteSpace=wrap;html=1;" vertex="1" parent="3NDLiqy1EePTKtnGJrRT-38">
          <mxGeometry y="60" width="140" height="30" as="geometry" />
        </mxCell>
        <mxCell id="3NDLiqy1EePTKtnGJrRT-42" value="Waste" style="swimlane;fontStyle=0;childLayout=stackLayout;horizontal=1;startSize=30;horizontalStack=0;resizeParent=1;resizeParentMax=0;resizeLast=0;collapsible=1;marginBottom=0;whiteSpace=wrap;html=1;fillColor=#d5e8d4;strokeColor=#82b366;" vertex="1" parent="1">
          <mxGeometry x="450" y="850" width="140" height="90" as="geometry" />
        </mxCell>
        <mxCell id="3NDLiqy1EePTKtnGJrRT-43" value="Wastes" style="text;strokeColor=none;fillColor=none;align=left;verticalAlign=middle;spacingLeft=4;spacingRight=4;overflow=hidden;points=[[0,0.5],[1,0.5]];portConstraint=eastwest;rotatable=0;whiteSpace=wrap;html=1;" vertex="1" parent="3NDLiqy1EePTKtnGJrRT-42">
          <mxGeometry y="30" width="140" height="30" as="geometry" />
        </mxCell>
        <mxCell id="3NDLiqy1EePTKtnGJrRT-44" value="Recycling Offset" style="text;strokeColor=none;fillColor=none;align=left;verticalAlign=middle;spacingLeft=4;spacingRight=4;overflow=hidden;points=[[0,0.5],[1,0.5]];portConstraint=eastwest;rotatable=0;whiteSpace=wrap;html=1;" vertex="1" parent="3NDLiqy1EePTKtnGJrRT-42">
          <mxGeometry y="60" width="140" height="30" as="geometry" />
        </mxCell>
        <mxCell id="3NDLiqy1EePTKtnGJrRT-46" value="Water" style="swimlane;fontStyle=0;childLayout=stackLayout;horizontal=1;startSize=30;horizontalStack=0;resizeParent=1;resizeParentMax=0;resizeLast=0;collapsible=1;marginBottom=0;whiteSpace=wrap;html=1;fillColor=#d5e8d4;strokeColor=#82b366;" vertex="1" parent="1">
          <mxGeometry x="610" y="850" width="140" height="60" as="geometry" />
        </mxCell>
        <mxCell id="3NDLiqy1EePTKtnGJrRT-47" value="Water Consumption" style="text;strokeColor=none;fillColor=none;align=left;verticalAlign=middle;spacingLeft=4;spacingRight=4;overflow=hidden;points=[[0,0.5],[1,0.5]];portConstraint=eastwest;rotatable=0;whiteSpace=wrap;html=1;" vertex="1" parent="3NDLiqy1EePTKtnGJrRT-46">
          <mxGeometry y="30" width="140" height="30" as="geometry" />
        </mxCell>
        <mxCell id="3NDLiqy1EePTKtnGJrRT-54" value="Competition Level and Score" style="rounded=1;whiteSpace=wrap;html=1;fillColor=#dae8fc;strokeColor=#6c8ebf;" vertex="1" parent="1">
          <mxGeometry x="180" y="687.52" width="125" height="60" as="geometry" />
        </mxCell>
        <mxCell id="3NDLiqy1EePTKtnGJrRT-61" value="Total Emissions Per&lt;br&gt;Month or Year" style="rounded=1;whiteSpace=wrap;html=1;fillColor=#e1d5e7;strokeColor=#9673a6;" vertex="1" parent="1">
          <mxGeometry x="385" y="1000" width="120" height="60" as="geometry" />
        </mxCell>
        <mxCell id="3NDLiqy1EePTKtnGJrRT-62" value="Join Competition" style="rounded=1;whiteSpace=wrap;html=1;" vertex="1" parent="1">
          <mxGeometry x="130" y="466" width="120" height="60" as="geometry" />
        </mxCell>
      </root>
    </mxGraphModel>
  </diagram>
</mxfile>
